<?xml version="1.0" encoding="UTF-8"?><svg id="b" xmlns="http://www.w3.org/2000/svg" viewBox="0 0 17.44 17.44"><g id="c"><path d="M17.44,8.72c0,4.82-3.9,8.72-8.72,8.72S0,13.54,0,8.72,3.9,0,8.72,0s8.72,3.91,8.72,8.72Zm-6.75,3.23c0-.23-.19-.42-.42-.42h-.42v-3.52c0-.23-.19-.42-.42-.42h-2.25c-.23,0-.42,.19-.42,.42v.84c0,.23,.19,.42,.42,.42h.42v2.25h-.42c-.23,0-.42,.19-.42,.42v.84c0,.23,.19,.42,.42,.42h3.09c.23,0,.42-.19,.42-.42v-.84Zm-3.45-6.61c0,.82,.66,1.48,1.48,1.48s1.48-.66,1.48-1.48-.66-1.48-1.48-1.48-1.48,.66-1.48,1.48Z" fill="#26303d"/></g></svg>