<?xml version="1.0" encoding="UTF-8"?><svg id="b" xmlns="http://www.w3.org/2000/svg" viewBox="0 0 22 22"><g id="c"><path d="M10.31,10.85v10.57c0,.44-.48,.71-.88,.51-2.62-1.32-6.42-1.68-8.29-1.78-.64-.03-1.14-.55-1.14-1.16V9.42c0-.67,.58-1.2,1.28-1.16,2.08,.12,6.21,.55,8.76,2.11,.18,.11,.28,.29,.28,.49Zm.69-2.6c-2.28,0-4.12-1.85-4.12-4.12S8.72,0,11,0s4.12,1.85,4.12,4.12-1.85,4.12-4.12,4.12Zm11,1.17v9.57c0,.62-.5,1.13-1.14,1.16-1.88,.1-5.67,.46-8.29,1.78-.4,.2-.88-.07-.88-.51V10.86c0-.2,.1-.39,.28-.5,2.55-1.56,6.68-1.99,8.76-2.11,.7-.04,1.28,.49,1.28,1.16Z" fill="#26303d"/></g></svg>