<?xml version="1.0" encoding="UTF-8"?><svg id="b" xmlns="http://www.w3.org/2000/svg" viewBox="0 0 22 22"><g id="c"><path d="M22,4.6v1.59c0,.38-.31,.69-.69,.69H.69c-.38,0-.69-.31-.69-.69v-1.59c0-.29,.19-.55,.45-.64L10.52,.09c.15-.06,.31-.09,.48-.09s.33,.03,.48,.09l10.07,3.87c.27,.1,.45,.36,.45,.64Zm0,15.34v1.38c0,.38-.31,.69-.69,.69H.69c-.38,0-.69-.31-.69-.69v-1.38c0-.38,.31-.69,.69-.69H21.31c.38,0,.69,.31,.69,.69ZM5.5,8.25v6.88h4.12v-6.88h2.75v6.88h4.12v-6.88h2.75v6.88h.69c.38,0,.69,.31,.69,.69v2.06H1.38v-2.06c0-.38,.31-.69,.69-.69h.69v-6.88h2.75Z" fill="#26303d"/></g></svg>