<?xml version="1.0" encoding="UTF-8"?><svg id="b" xmlns="http://www.w3.org/2000/svg" viewBox="0 0 19.38 19.38"><g id="c"><path d="M9.67,0c2.72,0,5.02,.93,6.89,2.8,1.88,1.88,2.82,4.18,2.82,6.89s-.92,4.99-2.77,6.8c-1.96,1.93-4.27,2.89-6.94,2.89s-4.89-.95-6.82-2.86C.95,14.62,0,12.34,0,9.69S.95,4.74,2.86,2.8C4.72,.93,7,0,9.67,0Zm.03,1.75c-2.2,0-4.07,.77-5.59,2.32-1.58,1.62-2.37,3.49-2.37,5.62s.78,4,2.35,5.57c1.57,1.57,3.44,2.35,5.61,2.35s4.04-.79,5.64-2.37c1.52-1.47,2.28-3.32,2.28-5.55s-.77-4.08-2.32-5.62c-1.55-1.55-3.41-2.32-5.61-2.32Zm2.6,5.54v3.96h-1.11v4.71h-3.01v-4.71h-1.11v-3.96c0-.17,.06-.32,.18-.44,.12-.12,.27-.18,.44-.18h3.98c.16,0,.31,.06,.43,.18,.13,.12,.19,.27,.19,.44Zm-3.96-2.49c0-.91,.45-1.37,1.35-1.37s1.35,.46,1.35,1.37-.45,1.35-1.35,1.35-1.35-.45-1.35-1.35Z" fill="#878787"/></g></svg>