<?xml version="1.0" encoding="UTF-8"?><svg id="b" xmlns="http://www.w3.org/2000/svg" viewBox="0 0 19.38 19.38"><g id="c"><path d="M9.67,0c2.71,0,5.01,.94,6.89,2.82,1.88,1.87,2.82,4.16,2.82,6.87s-.92,4.98-2.77,6.82c-1.95,1.92-4.26,2.87-6.94,2.87s-4.89-.95-6.82-2.86C.95,14.62,0,12.34,0,9.69S.95,4.76,2.86,2.82C4.74,.94,7.01,0,9.67,0Zm.03,1.75c-2.2,0-4.07,.78-5.59,2.34-1.58,1.6-2.37,3.47-2.37,5.61s.78,4.01,2.35,5.57c1.57,1.57,3.44,2.35,5.61,2.35s4.04-.79,5.64-2.37c1.52-1.48,2.28-3.33,2.28-5.55s-.77-4.08-2.32-5.61c-1.53-1.56-3.4-2.34-5.61-2.34Zm-4.33,6.58c.18-1.19,.66-2.11,1.44-2.76,.77-.65,1.71-.98,2.82-.98,1.52,0,2.73,.49,3.63,1.47,.9,.98,1.35,2.24,1.35,3.77s-.47,2.73-1.4,3.71c-.93,.99-2.15,1.48-3.63,1.48-1.1,0-2.04-.33-2.84-.99-.8-.66-1.27-1.59-1.44-2.8h2.44c.06,1.18,.77,1.76,2.13,1.76,.68,0,1.23-.29,1.64-.88,.42-.59,.62-1.37,.62-2.35s-.19-1.81-.57-2.34c-.38-.54-.93-.8-1.64-.8-1.29,0-2.02,.57-2.18,1.71h.71l-1.92,1.92-1.92-1.92h.76Z" fill="#878787"/></g></svg>