<?xml version="1.0" encoding="UTF-8"?><svg id="b" xmlns="http://www.w3.org/2000/svg" viewBox="0 0 138.16 78.94"><g id="c"><g><g><path d="M2.19,25.67c-.1-.33,0-.67,.04-.99,.11-.98,.25-1.95,.45-2.92,.29-1.4,.7-2.76,1.2-4.1,.85-2.27,2.01-4.38,3.42-6.34,1-1.39,2.16-2.65,3.39-3.84,1.21-1.17,2.54-2.21,3.95-3.12,1.17-.76,2.41-1.41,3.69-1.99,2.2-.99,4.49-1.64,6.86-2.03,.86-.14,1.73-.23,2.6-.28,.08,0,.17,.04,.22-.06h2.66c.42,.11,.85,.08,1.28,.12,4.01,.37,7.77,1.55,11.25,3.58-1.68,.21-3.34,.54-4.95,1.06-3.3,1.05-6.27,2.69-8.92,4.92-1.11,.93-2.14,1.95-3.09,3.05-.04,.03-.08,.05-.11,.08-.68-.07-1.35-.17-2.03-.2-1.68-.07-3.35,0-5.02,.3-1.89,.33-3.71,.84-5.46,1.64-4.54,2.06-8.07,5.25-10.58,9.57-.3,.52-.57,1.05-.86,1.58Z" fill="#27a9e0"/><path d="M43.32,3.72c1.03-.15,2.07-.19,3.12-.17,5.16,.08,9.93,1.49,14.21,4.38,6.14,4.15,10.03,9.88,11.29,17.2,1.49,8.61-.81,16.22-6.76,22.64-3.94,4.25-8.86,6.81-14.56,7.83-.98,.18-1.98,.3-2.98,.32,3.08-3.86,4.64-8.25,4.55-13.21,0-.02,0-.05,0-.07,.19-.14,.26-.35,.38-.54,1.17-1.8,2.09-3.72,2.8-5.74,.49-1.4,.86-2.83,1.11-4.29,.22-1.25,.35-2.51,.38-3.78,.02-.85,.02-1.7-.04-2.55-.06-.9-.16-1.8-.29-2.69-.15-1.01-.39-2.01-.66-3.01-.73-2.6-1.82-5.04-3.27-7.32-1.22-1.92-2.66-3.67-4.33-5.23-1.11-1.04-2.28-1.98-3.54-2.83-.47-.32-.94-.62-1.42-.94Z" fill="#9d1f63"/><path d="M2.19,25.67c.29-.53,.56-1.06,.86-1.58,2.51-4.31,6.03-7.5,10.58-9.57,1.75-.79,3.57-1.31,5.46-1.64,1.66-.29,3.34-.37,5.02-.3,.68,.03,1.35,.13,2.03,.2-.06,.1-.1,.21-.17,.29-.94,1.13-1.78,2.33-2.5,3.61-.28,.49-.61,.95-.75,1.52-.06,.06-.12,.13-.19,.19-.02,.02-.04,.04-.06,.07h0c-.07,.04-.15,.07-.22,.13-.89,.72-1.65,1.57-2.26,2.53-1.39,2.18-2.08,4.55-1.82,7.15,0,.04,0,.08,0,.12-.13,0-.2,.11-.28,.19-.38,.4-.79,.79-1.16,1.21-1.14,1.29-2.09,2.71-2.86,4.24-.91,1.81-1.53,3.72-1.86,5.72-.21,1.26-.3,2.52-.29,3.78,0,.5,.09,1,.12,1.5,.05,.79,.18,1.56,.35,2.32,.11,.49,.23,.98,.35,1.46-1.04-.85-2.05-1.73-2.97-2.73-.67-.74-1.33-1.49-1.93-2.28-1.74-2.32-3.09-4.85-4.04-7.6-.46-1.34-.81-2.71-1.05-4.11-.26-1.52-.42-3.05-.39-4.6,0-.42,0-.84,0-1.27,0-.1,.03-.21-.04-.3,.03-.09,.06-.18,.09-.27Z" fill="#e66e57"/><path d="M43.32,3.72c.47,.31,.95,.62,1.42,.94,1.25,.85,2.43,1.8,3.54,2.83,1.67,1.56,3.1,3.31,4.33,5.23,1.45,2.28,2.54,4.71,3.27,7.32,.28,.99,.51,1.99,.66,3.01,.13,.89,.24,1.78,.29,2.69,.05,.85,.06,1.7,.04,2.55-.03,1.27-.16,2.53-.38,3.78-.25,1.46-.62,2.89-1.11,4.29-.71,2.02-1.63,3.94-2.8,5.74-.12,.18-.19,.4-.38,.54,0-.8-.08-1.59-.18-2.38-.08-.62-.26-1.23-.34-1.85,0-.02,.01-.04,.02-.06,.97-.57,1.77-1.33,2.46-2.2,1.87-2.37,2.61-5.07,2.12-8.05-.43-2.62-1.71-4.78-3.82-6.41-2.35-1.82-5.01-2.49-7.96-2.03-1.35,.21-2.59,.72-3.76,1.41-.04-.03-.09-.06-.12-.1-.96-1.18-2.03-2.24-3.2-3.21-3.01-2.47-6.43-4.07-10.25-4.81-.31-.06-.65-.02-.92-.23,.95-1.09,1.98-2.11,3.09-3.05,2.65-2.22,5.63-3.86,8.92-4.92,1.61-.52,3.27-.85,4.95-1.06,.04,0,.08,.01,.11,.02Z" fill="#74318f"/><path d="M47.58,55.93c-.65,.86-1.42,1.61-2.22,2.32-2.59,2.29-5.56,3.87-8.95,4.58-6.47,1.36-12.29-.05-17.43-4.22-.31-.25-.59-.53-.89-.8,1.44,.29,2.9,.45,4.36,.5,.86,.03,1.72-.05,2.58-.11,1.14-.08,2.26-.29,3.37-.56,2.12-.51,4.11-1.34,6-2.43,.62-.36,1.24-.71,1.78-1.18,.04,0,.08,0,.11,0,.04,.02,.07,.04,.11,.06,3.25,1.33,6.63,1.9,10.13,1.89,.34,0,.69-.06,1.04-.04Z" fill="#faaf40"/><path d="M2.1,25.94c.08,.09,.04,.2,.04,.3,0,.42,0,.84,0,1.27-.03,1.55,.13,3.08,.39,4.6,.24,1.4,.59,2.77,1.05,4.11,.94,2.75,2.3,5.28,4.04,7.6,.6,.8,1.26,1.55,1.93,2.28,.91,1,1.93,1.87,2.97,2.73,.02,.02,.04,.04,.06,.07,.03,.11,.04,.23,.08,.34,.45,1.43,1.06,2.79,1.82,4.08,.7,1.19,1.52,2.31,2.45,3.34,.34,.37,.72,.71,1.03,1.11-1.09-.19-2.15-.51-3.17-.93C7,53.63,2.14,47.93,.45,39.66c-.97-4.72-.34-9.32,1.66-13.72Z" fill="#f05a29"/><path d="M17.96,57.76c-.31-.4-.69-.73-1.03-1.11-.93-1.03-1.75-2.14-2.45-3.34-.76-1.29-1.37-2.65-1.82-4.08-.03-.11-.05-.22-.08-.34,.77,.57,1.53,1.14,2.34,1.65,1.73,1.09,3.56,1.98,5.5,2.66,1.59,.56,3.21,.95,4.88,1.22,1.33,.21,2.66,.31,4,.34,1.17,.03,2.34-.08,3.51-.22,1.09-.14,2.17-.34,3.24-.59,.06,0,.11,.02,.14,.07-.54,.47-1.16,.83-1.78,1.18-1.88,1.09-3.88,1.92-6,2.43-1.11,.27-2.23,.48-3.37,.56-.86,.06-1.72,.14-2.58,.11-1.47-.05-2.92-.21-4.36-.5-.04-.02-.09-.04-.13-.06Z" fill="#f67117"/><path d="M47.58,55.93c-.35-.02-.69,.04-1.04,.04-3.49,0-6.88-.56-10.13-1.89-.04-.02-.08-.04-.11-.06,.06-.1,.13-.18,.26-.19,.02-.02,.04-.04,.07-.06h0c.09-.01,.19-.01,.28-.04,2.6-.71,5.03-1.81,7.3-3.27,1.22-.78,2.38-1.65,3.45-2.62,1.09-.99,2.12-2.04,3.06-3.17,.52-.63,.98-1.31,1.47-1.96,.09,4.96-1.46,9.35-4.55,13.21-.02,.01-.03,.02-.05,.02Z" fill="#c63344"/><path d="M26.24,12.72c.27,.21,.61,.17,.92,.23,3.82,.74,7.24,2.34,10.25,4.81,1.18,.96,2.25,2.03,3.2,3.21,.03,.04,.08,.07,.12,.1,0,.02,0,.04,0,.06-.46,.19-.8,.54-1.2,.82-.03-.04-.07-.08-.09-.12-.73-1.27-1.64-2.38-2.78-3.3-1.86-1.49-3.97-2.34-6.34-2.51-1.16-.09-2.32-.01-3.47,.28-1.51,.38-2.88,1.04-4.15,1.92,.13-.56,.47-1.03,.75-1.52,.73-1.28,1.56-2.48,2.5-3.61,.07-.09,.12-.2,.17-.29,.04-.03,.08-.05,.11-.08Z" fill="#e8414c"/><path d="M52.18,42.7c-.49,.65-.95,1.33-1.47,1.96-.94,1.14-1.96,2.19-3.06,3.17-1.08,.97-2.23,1.84-3.45,2.62-2.27,1.45-4.7,2.55-7.3,3.27-.09,.02-.19,.03-.28,.04,.02-.02,.03-.06,.06-.07,1.4-1.04,2.64-2.24,3.77-3.58,1.85-2.2,3.23-4.66,4.15-7.38,.3-.9,.58-1.8,.71-2.74,.02,0,.04-.02,.06-.02,1.03,.05,2.05,0,3.07-.23,1.16-.27,2.23-.74,3.24-1.34,.08,.62,.26,1.23,.34,1.85,.1,.79,.19,1.58,.18,2.38,0,.02,0,.05,0,.07Z" fill="#a9486f"/><path d="M36.05,53.96c-1.07,.25-2.15,.45-3.24,.59-1.17,.15-2.34,.25-3.51,.22-1.34-.03-2.67-.13-4-.34-1.66-.27-3.29-.66-4.88-1.22-1.93-.68-3.76-1.56-5.5-2.66-.81-.51-1.58-1.08-2.34-1.65-.02-.02-.04-.04-.06-.07-.12-.49-.24-.97-.35-1.46-.17-.77-.3-1.54-.35-2.32-.03-.5-.11-1-.12-1.5,0-1.27,.09-2.53,.29-3.78,.33-2.01,.95-3.91,1.86-5.72,.77-1.53,1.71-2.95,2.86-4.24,.37-.42,.77-.8,1.16-1.21,.08-.08,.15-.19,.28-.19,.09,.58,.09,1.17,.33,1.72,0,.04,0,.07,0,.11-.08,0-.13,.05-.19,.1-1.38,1.27-2.16,2.85-2.26,4.72-.17,3.28,1.87,6.12,5.02,7.04,.69,.2,1.39,.31,2.11,.24,.02,0,.04,0,.06,.01,.04,.2,.18,.36,.27,.53,1.07,1.89,2.4,3.59,3.89,5.16,.74,.78,1.57,1.49,2.41,2.17,1.13,.92,2.33,1.71,3.59,2.43,.87,.49,1.78,.9,2.68,1.33Z" fill="#f1823a"/><path d="M22.7,18.22c1.27-.88,2.64-1.55,4.15-1.92,1.15-.29,2.31-.36,3.47-.28,2.36,.17,4.48,1.02,6.34,2.51,1.15,.92,2.05,2.03,2.78,3.3,.03,.04,.06,.08,.09,.12,0,.02,0,.04,0,.06-.37,.2-.63,.52-.9,.83-.24,.28-.55,.52-.68,.88-.02,0-.04,0-.06,0-1-.27-2-.51-3.03-.66-.86-.12-1.73-.19-2.59-.22-.95-.04-1.9,.06-2.85,.17-1.05,.12-2.08,.34-3.1,.63-2.22,.64-4.26,1.65-6.14,2.98,0-.55,.11-1.09,.21-1.62,.33-1.7,.78-3.37,1.44-4.97,.21-.52,.49-1.02,.63-1.57,0,0,0,0,0,0,.02-.02,.04-.04,.06-.07,.06-.06,.12-.13,.19-.19Z" fill="#f12d21"/><path d="M22.45,18.47c-.14,.55-.42,1.05-.63,1.57-.66,1.61-1.11,3.28-1.44,4.97-.1,.53-.22,1.07-.21,1.62-.02,.02-.04,.04-.06,.06-.7,.47-1.32,1.04-1.96,1.58-.25-2.6,.43-4.97,1.82-7.15,.61-.96,1.38-1.8,2.26-2.53,.06-.05,.14-.08,.22-.13Z" fill="#f05a29"/><path d="M18.15,28.28c.64-.54,1.26-1.11,1.96-1.58-.01,.82-.17,1.64-.12,2.47,0,.02-.01,.04-.02,.06-.1,.04-.19,.07-.29,.12-.44,.2-.8,.53-1.21,.77-.24-.55-.23-1.14-.33-1.72,0-.04,0-.08,0-.12Z" fill="#f67117"/><path d="M22.52,18.41s-.04,.04-.06,.07c.02-.02,.04-.04,.06-.07Z" fill="#f05a29"/><path d="M40.73,21.13s0-.04,0-.06c1.17-.69,2.41-1.2,3.76-1.41,2.94-.46,5.6,.21,7.96,2.03,2.11,1.63,3.39,3.79,3.82,6.41,.49,2.98-.25,5.68-2.12,8.05-.69,.87-1.49,1.63-2.46,2.2-.12-.17-.14-.37-.19-.56-.53-1.97-1.34-3.82-2.44-5.54-.63-.99-1.35-1.92-2.15-2.79-.82-.9-1.71-1.73-2.7-2.45-.03-.04-.06-.09-.09-.13-.82-2.09-1.95-4.01-3.38-5.75Z" fill="#27a9e0"/><path d="M44.21,27.01c.99,.71,1.88,1.54,2.7,2.45,.79,.87,1.51,1.8,2.15,2.79,1.1,1.72,1.92,3.57,2.44,5.54,.05,.19,.08,.39,.19,.56,0,.02,0,.04-.02,.06-1.02,.6-2.09,1.07-3.24,1.34-1.01,.23-2.03,.27-3.07,.23,0-.04,0-.09,0-.13,.36-1.91,.5-3.83,.38-5.77-.09-1.38-.29-2.74-.61-4.08-.24-1.01-.59-1.99-.93-2.98Z" fill="#61b7d2"/><path d="M36.05,53.96c-.9-.43-1.81-.84-2.68-1.33-1.26-.72-2.47-1.51-3.59-2.43-.84-.68-1.66-1.39-2.41-2.17-1.49-1.57-2.83-3.27-3.89-5.16-.1-.17-.23-.33-.27-.53,1.42-.05,2.69-.51,3.82-1.36,.78-.59,1.47-1.29,1.89-2.2,.02,0,.04,0,.06,0,.84,.02,1.67-.04,2.5-.18,1.98-.34,3.72-1.17,5.27-2.43,.3-.24,.51-.58,.88-.74,.56,.71,1.11,1.44,1.81,2.04,1.38,1.19,2.95,1.97,4.74,2.33,.37,.08,.76,.06,1.13,.2-.12,.94-.41,1.84-.71,2.74-.92,2.72-2.3,5.18-4.15,7.38-1.12,1.33-2.37,2.54-3.77,3.58-.02,.02-.04,.05-.06,.07,0,0,0,0,0,0-.02,.02-.04,.04-.07,.06-.13,.01-.2,.09-.26,.19-.04,0-.08,0-.11,0-.03-.06-.08-.07-.14-.07Zm-8.35-10.87c-.04,2.38,1.91,4.23,4.16,4.28,2.47,.05,4.38-1.94,4.38-4.27,0-2.36-1.92-4.23-4.24-4.28-2.32-.04-4.38,2-4.3,4.27Z" fill="#f25931"/><path d="M36.56,53.83s.04-.04,.07-.06c-.02,.02-.04,.04-.07,.06Z" fill="#a9486f"/><path d="M40.73,21.13c1.43,1.74,2.56,3.66,3.38,5.75-.08-.05-.17-.08-.24-.14-1.02-.76-2.12-1.39-3.26-1.94-.02-.02-.04-.04-.06-.06,0-.08-.01-.17-.03-.25-.22-.87-.55-1.69-.99-2.48,0-.02,0-.04,0-.06,.4-.28,.74-.63,1.2-.82Z" fill="#e66e57"/><path d="M40.61,24.8c1.15,.55,2.24,1.19,3.26,1.94,.07,.06,.16,.09,.24,.14,.03,.04,.06,.09,.09,.13,.34,.98,.69,1.96,.93,2.98,.32,1.34,.52,2.7,.61,4.08,.12,1.94-.02,3.87-.38,5.77,0,.04,0,.08,0,.13-.02,0-.04,.01-.06,.02-.36-.14-.75-.12-1.13-.2-1.79-.36-3.35-1.14-4.74-2.33-.7-.6-1.24-1.32-1.81-2.04,0-.04,0-.08,0-.12,.06-.05,.13-.1,.19-.16,.93-.97,1.62-2.08,2.16-3.31,.5-1.16,.8-2.37,.87-3.62,.06-1.14,.02-2.29-.24-3.41Z" fill="#f1823a"/><path d="M23.15,42.32c-.72,.08-1.42-.04-2.11-.24-3.15-.92-5.2-3.76-5.02-7.04,.1-1.87,.89-3.44,2.26-4.72,.05-.05,.1-.11,.19-.1,.36,1.4,.95,2.7,1.83,3.85,.03,.07,.05,.14,.08,.21,0,.06,0,.13,0,.19,.23,1.2,.53,2.38,.91,3.54,.49,1.49,1.14,2.92,1.87,4.31Z" fill="#61b7d2"/><path d="M23.15,42.32c-.73-1.39-1.37-2.82-1.87-4.31-.38-1.16-.68-2.34-.91-3.54-.01-.06,0-.13,0-.19,.05,0,.09,.04,.13,.08,.44,.54,.9,1.07,1.44,1.53,1.08,.95,2.28,1.67,3.62,2.17,1.08,.41,2.21,.61,3.36,.71-.42,.91-1.11,1.6-1.89,2.2-1.12,.85-2.4,1.31-3.82,1.36-.02,0-.04-.01-.06-.01Z" fill="#a9486f"/><path d="M20.3,34.08c-.88-1.15-1.48-2.45-1.83-3.85,0-.04,0-.07,0-.11,.41-.24,.77-.58,1.21-.77,.09-.04,.19-.08,.29-.12,.02,.82,0,1.63,.06,2.45,.06,.8,.18,1.6,.27,2.4Z" fill="#faaf40"/><path d="M37.63,35.3s0,.08,0,.12c-.37,.16-.58,.5-.88,.74-1.56,1.26-3.3,2.09-5.27,2.43-.83,.14-1.66,.2-2.5,.18,.05-.1,.1-.21,.15-.31,.66-1.36,.84-2.8,.57-4.27-.33-1.79-1.24-3.25-2.72-4.32-1.58-1.15-3.35-1.54-5.28-1.23-.6,.1-1.15,.31-1.71,.52-.05-.83,.11-1.65,.12-2.47,.02-.02,.04-.04,.06-.06,1.88-1.33,3.93-2.34,6.14-2.98,1.02-.29,2.05-.51,3.1-.63,.95-.11,1.9-.21,2.85-.17,.87,.04,1.73,.1,2.59,.22,1.03,.15,2.03,.39,3.03,.66-.4,.6-.78,1.21-1.08,1.88-.77,1.75-1.05,3.57-.81,5.46,.17,1.38,.64,2.67,1.33,3.87,.08,.13,.14,.29,.3,.36Z" fill="#f64412"/><path d="M37.63,35.3c-.15-.07-.22-.23-.3-.36-.69-1.2-1.16-2.49-1.33-3.87-.24-1.89,.04-3.71,.81-5.46,.29-.67,.67-1.28,1.08-1.88,.02,0,.04,0,.06,0,.86,.34,1.73,.68,2.59,1.01,.02,.02,.04,.04,.06,.06,.27,1.12,.31,2.27,.24,3.41-.07,1.25-.37,2.46-.87,3.62-.53,1.23-1.23,2.34-2.16,3.31-.06,.06-.13,.11-.19,.16Z" fill="#f67117"/><path d="M40.55,24.73c-.86-.34-1.73-.68-2.59-1.01,.14-.36,.44-.6,.68-.88,.26-.3,.53-.63,.9-.83,.43,.78,.76,1.61,.99,2.48,.02,.08,.02,.17,.03,.25Z" fill="#f05a29"/><path d="M19.99,29.17c.56-.21,1.12-.43,1.71-.52,1.93-.31,3.7,.08,5.28,1.23,1.47,1.08,2.39,2.53,2.72,4.32,.27,1.47,.09,2.91-.57,4.27-.05,.1-.1,.21-.15,.31-.02,0-.04,0-.06,0-1.15-.09-2.28-.29-3.36-.71-1.34-.51-2.54-1.22-3.62-2.17-.53-.47-.99-.99-1.44-1.53-.04-.04-.07-.08-.13-.08-.03-.07-.05-.14-.08-.21-.09-.8-.2-1.59-.27-2.4-.06-.82-.04-1.63-.06-2.45,0-.02,.01-.04,.02-.06Z" fill="#c63344"/><path d="M27.7,43.09c-.08-2.26,1.98-4.31,4.3-4.27,2.32,.04,4.23,1.92,4.24,4.28,0,2.33-1.91,4.32-4.38,4.27-2.25-.04-4.19-1.9-4.16-4.28Z" fill="#e8414c"/></g><g><path d="M80.64,20.55V12.47h1.23v6.98h3.89v1.1h-5.12Z" fill="#951b81"/><path d="M87.06,20.55V12.47h5.16v1.1h-3.94v2.36h3.36v1.09h-3.36v2.43h3.94v1.1h-5.16Z" fill="#951b81"/><path d="M93.66,20.55V12.47h1.23v8.08h-1.23Z" fill="#951b81"/><path d="M101.68,19.79c-.51,.51-1.25,.76-2.09,.76h-2.84V12.47h2.84c.84,0,1.58,.25,2.09,.76,.87,.87,.82,2.05,.82,3.22s.06,2.46-.82,3.34Zm-.84-5.67c-.34-.37-.79-.54-1.37-.54h-1.49v5.88h1.49c.58,0,1.03-.17,1.37-.54,.42-.47,.43-1.34,.43-2.45s-.01-1.87-.43-2.34Z" fill="#951b81"/><path d="M104.12,20.55V12.47h5.16v1.1h-3.94v2.36h3.36v1.09h-3.36v2.43h3.94v1.1h-5.16Z" fill="#951b81"/><path d="M115.67,20.55l-3.73-5.69v5.69h-1.23V12.47h1.12l3.73,5.67v-5.67h1.23v8.08h-1.12Z" fill="#951b81"/><path d="M80.64,32.43v-8.08h5.16v1.1h-3.94v2.36h3.36v1.09h-3.36v2.43h3.94v1.1h-5.16Z" fill="#951b81"/><path d="M92.17,31.67c-.51,.51-1.25,.76-2.09,.76h-2.84v-8.08h2.84c.84,0,1.58,.25,2.09,.76,.87,.87,.82,2.05,.82,3.22s.06,2.46-.82,3.34Zm-.84-5.67c-.34-.37-.79-.54-1.37-.54h-1.49v5.88h1.49c.58,0,1.03-.17,1.37-.54,.42-.47,.43-1.34,.43-2.45s-.01-1.87-.43-2.34Z" fill="#951b81"/><path d="M97.4,32.5c-1.65,0-2.89-1.12-2.89-2.79v-5.36h1.23v5.3c0,1.08,.66,1.75,1.67,1.75s1.68-.67,1.68-1.75v-5.3h1.23v5.36c0,1.67-1.26,2.79-2.91,2.79Z" fill="#951b81"/><path d="M104.75,32.5c-.84,0-1.57-.31-2.12-.86-.79-.79-.78-1.69-.78-3.25s-.01-2.45,.78-3.25c.56-.56,1.28-.86,2.12-.86,1.49,0,2.6,.87,2.88,2.49h-1.25c-.19-.82-.74-1.38-1.63-1.38-.48,0-.91,.18-1.19,.49-.4,.43-.49,.9-.49,2.52s.09,2.09,.49,2.52c.28,.31,.71,.49,1.19,.49,.9,0,1.45-.57,1.65-1.38h1.24c-.27,1.61-1.42,2.49-2.88,2.49Z" fill="#951b81"/><path d="M113.81,32.43l-.56-1.62h-3.19l-.56,1.62h-1.31l2.96-8.08h.99l2.96,8.08h-1.31Zm-2.12-6.25l-1.26,3.59h2.49l-1.23-3.59Z" fill="#951b81"/><path d="M118.24,25.45v6.98h-1.23v-6.98h-2.22v-1.1h5.67v1.1h-2.22Z" fill="#951b81"/><path d="M121.77,32.43v-8.08h1.23v8.08h-1.23Z" fill="#951b81"/><path d="M129.67,31.63c-.56,.56-1.27,.86-2.13,.86s-1.57-.31-2.12-.86c-.79-.79-.78-1.69-.78-3.25s-.01-2.45,.78-3.25c.56-.56,1.26-.86,2.12-.86s1.58,.31,2.13,.86c.79,.79,.77,1.69,.77,3.25s.02,2.45-.77,3.25Zm-.93-5.75c-.28-.31-.73-.5-1.2-.5s-.92,.19-1.2,.5c-.4,.43-.48,.89-.48,2.51s.08,2.08,.48,2.51c.28,.31,.73,.5,1.2,.5s.92-.19,1.2-.5c.4-.43,.48-.89,.48-2.51s-.08-2.08-.48-2.51Z" fill="#951b81"/><path d="M137.04,32.43l-3.73-5.69v5.69h-1.23v-8.08h1.12l3.73,5.67v-5.67h1.23v8.08h-1.12Z" fill="#951b81"/><path d="M81.87,37.33v2.46h3.36v1.1h-3.36v3.42h-1.23v-8.08h5.16v1.1h-3.94Z" fill="#951b81"/><path d="M87.14,44.31v-8.08h1.23v8.08h-1.23Z" fill="#951b81"/><path d="M90.24,44.31v-8.08h5.16v1.1h-3.94v2.36h3.36v1.09h-3.36v2.43h3.94v1.1h-5.16Z" fill="#951b81"/><path d="M96.84,44.31v-8.08h1.23v6.98h3.89v1.1h-5.12Z" fill="#951b81"/><path d="M108.18,43.55c-.51,.51-1.25,.76-2.09,.76h-2.84v-8.08h2.84c.84,0,1.58,.25,2.09,.76,.87,.87,.82,2.05,.82,3.22s.06,2.46-.82,3.34Zm-.84-5.67c-.34-.37-.79-.54-1.37-.54h-1.49v5.88h1.49c.58,0,1.03-.17,1.37-.54,.42-.47,.43-1.34,.43-2.45s-.01-1.87-.43-2.34Z" fill="#951b81"/><path d="M110.62,44.31v-8.08h1.23v6.98h3.89v1.1h-5.12Z" fill="#951b81"/><path d="M122.18,44.31l-.56-1.62h-3.19l-.56,1.62h-1.31l2.96-8.08h.99l2.96,8.08h-1.31Zm-2.12-6.25l-1.26,3.59h2.49l-1.23-3.59Z" fill="#951b81"/><path d="M127.95,44.31h-3.27v-8.08h3.14c1.5,0,2.44,.85,2.44,2.21,0,.87-.54,1.5-1.09,1.71,.62,.25,1.21,.85,1.21,1.87,0,1.49-1.01,2.28-2.44,2.28Zm-.23-6.98h-1.82v2.31h1.82c.78,0,1.32-.41,1.32-1.16s-.53-1.16-1.32-1.16Zm.11,3.42h-1.93v2.46h1.93c.85,0,1.33-.52,1.33-1.24s-.48-1.23-1.33-1.23Z" fill="#951b81"/></g><g id="d"><path d="M3.83,12.56h13.13v23.14c0,.69,.1,1.27,.29,1.74,.2,.47,.47,.84,.81,1.13,.35,.29,.74,.49,1.17,.61,.44,.12,.88,.18,1.33,.18,.51,0,1.05-.05,1.62-.16,.57-.1,1.2-.29,1.89-.56l1.49,4.87c-.6,.18-1.16,.35-1.67,.5-.51,.15-1.02,.28-1.53,.38-.51,.1-1.05,.19-1.62,.25-.57,.06-1.2,.09-1.89,.09-2.83,0-4.95-.83-6.38-2.5-1.43-1.67-2.14-3.93-2.14-6.79V17.8H3.83v-5.23Z" fill="#fff"/><path d="M25.03,33c0-1.83,.32-3.47,.97-4.92,.65-1.44,1.51-2.67,2.59-3.68,1.08-1.01,2.32-1.78,3.72-2.32,1.4-.54,2.85-.81,4.35-.81,1.71,0,3.23,.27,4.56,.81,1.32,.54,2.42,1.29,3.29,2.26,.87,.96,1.53,2.1,1.98,3.41,.45,1.31,.68,2.73,.68,4.26,0,.6-.03,1.15-.09,1.65-.06,.5-.12,.88-.18,1.15h-15.06c.33,1.71,1.08,2.95,2.26,3.72s2.59,1.15,4.24,1.15c1.02,0,1.99-.13,2.91-.38,.92-.26,1.87-.64,2.86-1.15l2.17,3.97c-1.26,.81-2.68,1.45-4.24,1.92-1.56,.47-3.1,.7-4.6,.7-1.74,0-3.37-.26-4.87-.79-1.5-.53-2.81-1.29-3.92-2.3-1.11-1.01-1.99-2.23-2.64-3.68-.65-1.44-.97-3.1-.97-4.96Zm16.15-2.3c0-1.29-.35-2.35-1.04-3.16-.69-.81-1.8-1.22-3.34-1.22-1.2,0-2.28,.35-3.23,1.06-.95,.71-1.56,1.81-1.83,3.32h9.43Z" fill="#fff"/><path d="M66.52,18.11c-1.47-.57-3.04-.86-4.69-.86-1.44,0-2.5,.32-3.18,.95-.68,.63-1.01,1.62-1.01,2.98v.63h7.71v5.19h-7.71v17.18h-6.63V27h-3.74v-4.92l3.74-.27v-.59c0-1.29,.2-2.5,.59-3.61,.39-1.11,.99-2.08,1.8-2.91,.81-.83,1.85-1.48,3.11-1.96,1.26-.48,2.77-.72,4.51-.72,1.29,0,2.5,.12,3.63,.36,1.13,.24,2.17,.53,3.13,.86l-1.26,4.87Z" fill="#fff"/></g><circle cx="52.97" cy="63.45" r="5.95" fill="#da1c5c"/><circle cx="47.43" cy="75.28" r="3.66" fill="#00aeef"/></g></g></svg>