<?xml version="1.0" encoding="UTF-8"?><svg id="b" xmlns="http://www.w3.org/2000/svg" xmlns:xlink="http://www.w3.org/1999/xlink" viewBox="0 0 134.78 46.95"><defs><clipPath id="d"><path d="M19.9,12.72c0-1.76-.26-3.31-.79-4.65-.52-1.34-1.23-2.46-2.12-3.36-.89-.9-1.92-1.58-3.1-2.03-1.18-.45-2.43-.68-3.75-.68s-2.61,.23-3.81,.68c-1.2,.45-2.24,1.13-3.14,2.03-.9,.9-1.61,2.02-2.13,3.36-.52,1.34-.79,2.9-.79,4.65s.26,3.31,.79,4.65c.52,1.34,1.23,2.47,2.13,3.36,.9,.9,1.95,1.58,3.14,2.03,1.2,.45,2.47,.68,3.81,.68s2.57-.23,3.75-.68c1.18-.45,2.21-1.13,3.1-2.03,.89-.9,1.6-2.02,2.12-3.36,.52-1.34,.79-2.9,.79-4.65Zm-3.53,3.39c-.32,1.02-.77,1.88-1.35,2.59-.58,.71-1.29,1.26-2.12,1.65-.83,.39-1.77,.58-2.82,.58s-1.99-.19-2.83-.58c-.84-.39-1.55-.93-2.13-1.65-.58-.71-1.03-1.58-1.35-2.59-.32-1.02-.47-2.15-.47-3.39s.16-2.38,.47-3.39c.32-1.02,.77-1.88,1.35-2.59,.58-.71,1.29-1.26,2.13-1.65,.84-.39,1.78-.58,2.83-.58s1.99,.19,2.82,.58c.83,.39,1.54,.93,2.12,1.65,.58,.71,1.03,1.58,1.35,2.59,.32,1.02,.47,2.15,.47,3.39s-.16,2.38-.47,3.39Zm19.77-4.64c.2,.87,.3,1.83,.3,2.88v8.66h-2.76V14.94c0-.95-.06-1.76-.19-2.43-.13-.67-.34-1.22-.64-1.63-.3-.42-.69-.72-1.19-.9-.49-.19-1.11-.28-1.84-.28-.3,0-.6,0-.92,.03-.32,.02-.62,.04-.9,.07-.29,.03-.54,.06-.77,.1-.23,.04-.39,.07-.49,.09v13.01h-2.76V8.03c.63-.16,1.47-.33,2.52-.5,1.05-.18,2.25-.27,3.62-.27,1.23,0,2.24,.17,3.05,.52,.81,.35,1.46,.83,1.94,1.45,.48,.62,.83,1.37,1.02,2.24Zm11.74,11.89c1.28,0,2.42-.09,3.41-.27,.99-.18,1.8-.36,2.43-.53V0l-2.76,.47v7.8c-.34-.22-.84-.44-1.53-.68s-1.47-.36-2.36-.36c-1.11,0-2.09,.2-2.95,.59-.86,.4-1.59,.95-2.18,1.66-.59,.71-1.04,1.56-1.35,2.55-.31,.99-.46,2.08-.46,3.26,0,1.25,.18,2.37,.55,3.36,.37,1,.88,1.84,1.56,2.53,.67,.69,1.48,1.23,2.43,1.6,.95,.38,2.02,.56,3.2,.56Zm-4.86-8.06c0-.79,.08-1.53,.24-2.22,.16-.69,.42-1.29,.77-1.79,.36-.5,.82-.9,1.38-1.19s1.24-.43,2.03-.43,1.44,.13,2.08,.39c.63,.26,1.12,.52,1.45,.8v9.75c-.28,.08-.67,.15-1.17,.22-.5,.07-1.13,.1-1.88,.1-1.48,0-2.67-.49-3.56-1.47-.89-.98-1.33-2.37-1.33-4.17Zm22.35,8.06c1.07,0,2.02-.1,2.86-.3,.84-.2,1.43-.39,1.76-.56l-.39-2.31c-.34,.16-.84,.32-1.5,.49-.66,.17-1.48,.25-2.45,.25-1.72,0-2.98-.42-3.79-1.25-.81-.83-1.27-2.05-1.39-3.65h10.55c.02-.16,.03-.33,.03-.52v-.46c0-2.65-.55-4.62-1.66-5.91-1.11-1.29-2.7-1.94-4.77-1.94-.89,0-1.76,.17-2.61,.5-.85,.34-1.6,.84-2.25,1.51s-1.18,1.52-1.57,2.53c-.4,1.02-.59,2.21-.59,3.57,0,1.17,.15,2.24,.46,3.22,.31,.98,.78,1.82,1.41,2.53,.63,.71,1.44,1.27,2.42,1.67s2.14,.61,3.48,.61Zm-4.46-11.12c.19-.51,.45-.97,.79-1.36,.34-.4,.75-.72,1.23-.96,.48-.25,1.04-.37,1.67-.37,1.13,0,2.01,.4,2.65,1.2,.64,.8,.95,1.82,.93,3.07h-7.65c.06-.53,.18-1.06,.37-1.57Zm22.43-2.13c-.22-.08-.58-.17-1.08-.28-.5-.11-1.15-.16-1.94-.16-.51,0-1.02,.05-1.53,.16-.5,.11-.84,.18-.99,.22v12.96h-2.76V8.24c.65-.24,1.46-.46,2.43-.67,.97-.21,2.06-.31,3.26-.31,.24,0,.51,.01,.82,.04,.31,.03,.61,.07,.9,.12s.57,.1,.82,.15c.25,.05,.43,.09,.55,.13l-.47,2.4Zm14.54,8.02c-.62-1.83-1.19-3.73-1.7-5.71-.51,1.98-1.08,3.88-1.69,5.71-.61,1.83-1.2,3.45-1.75,4.88h-2.4c-.91-2.04-1.8-4.36-2.67-6.97-.87-2.61-1.69-5.43-2.46-8.45h2.96c.2,.93,.43,1.94,.71,3.02,.28,1.09,.57,2.17,.87,3.26,.31,1.09,.63,2.13,.96,3.14,.34,1.01,.65,1.89,.95,2.64,.34-.93,.67-1.91,.99-2.95,.33-1.04,.64-2.09,.93-3.14s.58-2.1,.84-3.11c.27-1.02,.5-1.97,.7-2.86h2.28c.18,.89,.4,1.84,.65,2.86,.26,1.02,.53,2.06,.83,3.11s.61,2.1,.93,3.14,.66,2.02,.99,2.95c.3-.75,.61-1.63,.93-2.64,.33-1.01,.65-2.06,.96-3.14,.32-1.09,.61-2.17,.89-3.26,.28-1.09,.51-2.09,.71-3.02h2.85c-.77,3.02-1.59,5.84-2.46,8.45-.87,2.61-1.76,4.93-2.67,6.97h-2.4c-.55-1.42-1.14-3.05-1.76-4.88Zm12.2-10.54h2.76v15.42h-2.76V7.59Zm.1-3.28c-.35-.33-.52-.77-.52-1.32s.17-.99,.52-1.32c.35-.33,.77-.49,1.26-.49s.91,.16,1.26,.49c.35,.33,.52,.77,.52,1.32s-.17,.99-.52,1.32c-.35,.33-.77,.49-1.26,.49s-.91-.16-1.26-.49Zm10.02-2.64c.35,.33,.52,.77,.52,1.32s-.17,.99-.52,1.32c-.35,.33-.77,.49-1.26,.49s-.91-.16-1.26-.49c-.35-.33-.52-.77-.52-1.32s.17-.99,.52-1.32c.35-.33,.77-.49,1.26-.49s.91,.16,1.26,.49Zm-7.01,26.55l.36-2.25c.2,.06,.43,.11,.68,.15,.26,.04,.49,.06,.71,.06,.95,0,1.63-.29,2.03-.87,.4-.58,.61-1.44,.61-2.56V7.59h2.76v15.12c0,1.98-.45,3.44-1.35,4.4-.9,.96-2.21,1.44-3.93,1.44-.24,0-.54-.03-.92-.09-.38-.06-.69-.14-.95-.24Zm15.48-4.86c-1.36,0-2.43-.11-3.2-.34-.77-.23-1.29-.4-1.57-.52l.5-2.37c.32,.12,.82,.3,1.51,.53,.69,.24,1.61,.36,2.76,.36s1.96-.15,2.51-.44c.54-.3,.82-.77,.82-1.42s-.27-1.21-.8-1.6-1.41-.84-2.64-1.33c-.59-.24-1.16-.48-1.7-.73-.54-.25-1.01-.54-1.41-.87-.4-.34-.71-.74-.95-1.22s-.36-1.06-.36-1.75c0-1.36,.5-2.45,1.51-3.25,1.01-.8,2.38-1.2,4.12-1.2,.43,0,.87,.02,1.3,.07,.43,.05,.84,.11,1.22,.18,.38,.07,.71,.14,.99,.22,.29,.08,.51,.15,.67,.21l-.5,2.37c-.3-.16-.76-.32-1.39-.49-.63-.17-1.39-.25-2.28-.25-.77,0-1.44,.15-2.02,.46-.57,.31-.86,.79-.86,1.44,0,.34,.06,.63,.19,.89,.13,.26,.33,.49,.59,.7s.6,.4,.99,.58c.4,.18,.87,.37,1.42,.56,.73,.28,1.38,.55,1.96,.82,.57,.27,1.06,.58,1.47,.93,.4,.36,.72,.79,.93,1.29,.22,.5,.33,1.12,.33,1.85,0,1.42-.53,2.5-1.59,3.23-1.06,.73-2.56,1.1-4.52,1.1ZM.24,34.78H1.84v8.93H.24v-8.93Zm1.52-3.43c.2,.19,.3,.44,.3,.76s-.1,.58-.3,.76c-.2,.19-.44,.28-.73,.28s-.53-.09-.73-.28c-.2-.19-.3-.44-.3-.76s.1-.58,.3-.76,.44-.28,.73-.28,.53,.09,.73,.28Zm9.87,5.68c.11,.5,.17,1.06,.17,1.67v5.02h-1.6v-4.67c0-.55-.04-1.02-.11-1.41-.07-.39-.2-.7-.37-.95-.17-.24-.4-.42-.69-.52-.29-.11-.64-.16-1.07-.16-.17,0-.35,0-.53,.02-.18,.01-.36,.03-.52,.04-.17,.02-.32,.04-.45,.06-.13,.02-.23,.04-.28,.05v7.54h-1.6v-8.68c.37-.09,.85-.19,1.46-.29,.61-.1,1.31-.15,2.1-.15,.71,0,1.3,.1,1.77,.3,.47,.2,.84,.48,1.13,.84,.28,.36,.48,.79,.59,1.3Zm12.56-1.86c-.19-.13-.49-.26-.88-.39-.4-.14-.85-.21-1.37-.21-.64,0-1.21,.11-1.71,.34-.5,.23-.92,.55-1.26,.96-.34,.41-.6,.91-.78,1.48-.18,.57-.27,1.2-.27,1.89,0,.72,.11,1.37,.32,1.95,.21,.58,.51,1.07,.9,1.47,.39,.4,.86,.71,1.41,.93,.55,.22,1.17,.33,1.86,.33,.74,0,1.4-.05,1.98-.15,.57-.1,1.04-.21,1.41-.31v-13.08l-1.6,.27v4.52Zm0,7.15c-.16,.05-.39,.09-.68,.13-.29,.04-.66,.06-1.09,.06-.86,0-1.55-.28-2.06-.85-.52-.57-.77-1.37-.77-2.41,0-.46,.05-.89,.14-1.29,.09-.4,.24-.75,.45-1.04s.47-.52,.8-.69c.33-.17,.72-.25,1.18-.25s.84,.07,1.2,.22c.37,.15,.65,.3,.84,.46v5.65Zm7.92-7.77c-.52,0-1.02,.1-1.51,.29-.49,.19-.93,.49-1.31,.88s-.68,.88-.91,1.47c-.23,.59-.34,1.28-.34,2.07,0,.68,.09,1.3,.27,1.86,.18,.57,.45,1.06,.82,1.47,.37,.41,.83,.74,1.4,.97,.57,.23,1.24,.35,2.02,.35,.62,0,1.17-.06,1.66-.17,.49-.11,.83-.22,1.02-.33l-.22-1.34c-.19,.09-.48,.19-.87,.28-.38,.1-.86,.15-1.42,.15-1,0-1.73-.24-2.2-.72-.47-.48-.74-1.19-.81-2.11h6.12c.01-.09,.02-.19,.02-.3v-.27c0-1.53-.32-2.68-.96-3.43-.64-.75-1.56-1.13-2.77-1.13Zm-2.37,3.83c.03-.31,.11-.61,.21-.91,.11-.3,.26-.56,.46-.79,.19-.23,.43-.42,.71-.56,.28-.14,.6-.21,.97-.21,.65,0,1.17,.23,1.54,.7,.37,.46,.55,1.06,.54,1.78h-4.43Zm14.14,3.88h5.5v1.44h-7.17v-11.91h1.67v10.46Zm10.52-7.71c-.52,0-1.02,.1-1.51,.29-.49,.19-.93,.49-1.31,.88s-.68,.88-.91,1.47c-.23,.59-.34,1.28-.34,2.07,0,.68,.09,1.3,.27,1.86,.18,.57,.45,1.06,.82,1.47,.37,.41,.83,.74,1.4,.97,.57,.23,1.24,.35,2.02,.35,.62,0,1.17-.06,1.66-.17,.49-.11,.83-.22,1.02-.33l-.22-1.34c-.19,.09-.48,.19-.87,.28-.38,.1-.86,.15-1.42,.15-1,0-1.73-.24-2.2-.72-.47-.48-.74-1.19-.81-2.11h6.12c.01-.09,.02-.19,.02-.3v-.27c0-1.53-.32-2.68-.96-3.43-.64-.75-1.56-1.13-2.77-1.13Zm-2.37,3.83c.03-.31,.11-.61,.21-.91,.11-.3,.26-.56,.46-.79,.19-.23,.43-.42,.71-.56,.28-.14,.6-.21,.97-.21,.65,0,1.17,.23,1.54,.7,.37,.46,.55,1.06,.54,1.78h-4.43Zm8.4-3.61h1.6v8.93h-1.6v-8.93Zm1.52-3.43c.2,.19,.3,.44,.3,.76s-.1,.58-.3,.76c-.2,.19-.44,.28-.73,.28s-.53-.09-.73-.28c-.2-.19-.3-.44-.3-.76s.1-.58,.3-.76,.44-.28,.73-.28,.53,.09,.73,.28Zm8.6,3.82c-.19-.13-.49-.26-.88-.39-.4-.14-.85-.21-1.37-.21-.64,0-1.21,.11-1.71,.34-.5,.23-.92,.55-1.26,.96-.34,.41-.6,.91-.78,1.48-.18,.57-.27,1.2-.27,1.89,0,.72,.11,1.37,.32,1.95,.21,.58,.51,1.07,.9,1.47,.39,.4,.86,.71,1.41,.93,.55,.22,1.17,.33,1.86,.33,.74,0,1.4-.05,1.98-.15,.57-.1,1.04-.21,1.41-.31v-13.08l-1.6,.27v4.52Zm0,7.15c-.16,.05-.39,.09-.68,.13-.29,.04-.66,.06-1.09,.06-.86,0-1.55-.28-2.06-.85-.52-.57-.77-1.37-.77-2.41,0-.46,.05-.89,.14-1.29,.09-.4,.24-.75,.45-1.04s.47-.52,.8-.69c.33-.17,.72-.25,1.18-.25s.84,.07,1.2,.22c.37,.15,.65,.3,.84,.46v5.65Zm9.78-1.98c.13,.29,.19,.65,.19,1.07,0,.82-.31,1.45-.92,1.87-.61,.42-1.49,.64-2.62,.64-.79,0-1.41-.07-1.86-.2-.45-.13-.75-.23-.91-.3l.29-1.37c.18,.07,.48,.17,.88,.31,.4,.14,.93,.21,1.6,.21s1.14-.09,1.45-.26c.31-.17,.47-.45,.47-.82s-.15-.7-.46-.93c-.31-.23-.82-.49-1.53-.77-.34-.14-.67-.28-.99-.42-.32-.14-.59-.31-.82-.51-.23-.19-.41-.43-.55-.7s-.21-.61-.21-1.01c0-.79,.29-1.42,.88-1.88,.58-.46,1.38-.7,2.39-.7,.25,0,.5,.01,.76,.04s.49,.06,.7,.1c.22,.04,.41,.08,.58,.13,.17,.05,.29,.09,.39,.12l-.29,1.37c-.17-.09-.44-.19-.81-.28-.37-.1-.81-.15-1.32-.15-.45,0-.84,.09-1.17,.27-.33,.18-.5,.46-.5,.83,0,.19,.04,.37,.11,.52,.07,.15,.19,.28,.34,.4,.15,.12,.35,.23,.58,.34,.23,.1,.5,.21,.82,.33,.42,.16,.8,.32,1.13,.47,.33,.15,.62,.34,.85,.54,.23,.21,.42,.46,.54,.75Zm5.81-5.78c-.52,0-1.02,.1-1.51,.29-.49,.19-.93,.49-1.31,.88s-.68,.88-.91,1.47c-.23,.59-.34,1.28-.34,2.07,0,.68,.09,1.3,.27,1.86,.18,.57,.45,1.06,.82,1.47,.37,.41,.83,.74,1.4,.97,.57,.23,1.24,.35,2.02,.35,.62,0,1.17-.06,1.66-.17,.49-.11,.83-.22,1.02-.33l-.22-1.34c-.19,.09-.48,.19-.87,.28-.38,.1-.86,.15-1.42,.15-1,0-1.73-.24-2.2-.72-.47-.48-.74-1.19-.81-2.11h6.12c.01-.09,.02-.19,.02-.3v-.27c0-1.53-.32-2.68-.96-3.43-.64-.75-1.56-1.13-2.77-1.13Zm-2.37,3.83c.03-.31,.11-.61,.21-.91,.11-.3,.26-.56,.46-.79,.19-.23,.43-.42,.71-.56,.28-.14,.6-.21,.97-.21,.65,0,1.17,.23,1.54,.7,.37,.46,.55,1.06,.54,1.78h-4.43Zm17.14-3.62c.14,.03,.25,.05,.32,.08l-.27,1.39c-.13-.05-.34-.1-.63-.16-.29-.06-.67-.09-1.13-.09-.3,0-.59,.03-.88,.09-.29,.06-.48,.11-.58,.13v7.51h-1.6v-8.56c.38-.14,.85-.27,1.41-.39,.56-.12,1.19-.18,1.89-.18,.14,0,.29,0,.47,.03,.18,.02,.35,.04,.52,.07,.17,.03,.33,.06,.47,.09Zm5.44-.21c-.52,0-1.02,.1-1.51,.29-.49,.19-.93,.49-1.31,.88s-.68,.88-.91,1.47c-.23,.59-.34,1.28-.34,2.07,0,.68,.09,1.3,.27,1.86,.18,.57,.45,1.06,.82,1.47,.37,.41,.83,.74,1.4,.97,.57,.23,1.24,.35,2.02,.35,.62,0,1.17-.06,1.66-.17,.49-.11,.83-.22,1.02-.33l-.22-1.34c-.19,.09-.48,.19-.87,.28-.38,.1-.86,.15-1.42,.15-1,0-1.73-.24-2.2-.72-.47-.48-.74-1.19-.81-2.11h6.12c.01-.09,.02-.19,.02-.3v-.27c0-1.53-.32-2.68-.96-3.43-.64-.75-1.56-1.13-2.77-1.13Zm-2.37,3.83c.03-.31,.11-.61,.21-.91,.11-.3,.26-.56,.46-.79,.19-.23,.43-.42,.71-.56,.28-.14,.6-.21,.97-.21,.65,0,1.17,.23,1.54,.7,.37,.46,.55,1.06,.54,1.78h-4.43Zm12.23-3.8c-.68,0-1.28,.11-1.82,.34-.54,.22-.99,.53-1.37,.93-.37,.39-.66,.86-.85,1.41-.19,.54-.29,1.14-.29,1.8,0,.74,.1,1.39,.31,1.92,.21,.54,.49,.99,.84,1.35,.35,.36,.77,.63,1.25,.8,.48,.17,.98,.26,1.52,.26s.99-.07,1.38-.21c.4-.14,.66-.26,.8-.35v.38c0,.82-.21,1.43-.63,1.8-.42,.38-1.1,.57-2.05,.57-.5,0-.99-.05-1.45-.15s-.86-.21-1.18-.34l-.29,1.39c.37,.13,.8,.23,1.3,.33,.5,.09,1.03,.14,1.59,.14,1.44,0,2.52-.31,3.23-.93,.71-.62,1.07-1.61,1.07-2.99v-7.97c-.38-.09-.84-.19-1.4-.3-.56-.11-1.21-.16-1.95-.16Zm1.75,6.82c-.21,.16-.49,.3-.84,.42-.36,.12-.74,.18-1.17,.18-.31,0-.61-.06-.9-.17-.29-.11-.55-.29-.77-.53-.22-.24-.4-.54-.53-.91-.13-.37-.2-.81-.2-1.32,0-.93,.23-1.67,.7-2.23s1.13-.84,1.98-.84c.46,0,.82,.02,1.09,.06,.27,.04,.48,.08,.64,.13v5.22Zm5.87-10.06c.2,.19,.3,.44,.3,.76s-.1,.58-.3,.76c-.2,.19-.44,.28-.73,.28s-.53-.09-.73-.28c-.2-.19-.3-.44-.3-.76s.1-.58,.3-.76,.44-.28,.73-.28,.53,.09,.73,.28Zm-1.52,3.43h1.6v8.93h-1.6v-8.93Zm11.92,2.55c-.21-.58-.5-1.07-.87-1.49-.37-.41-.82-.73-1.33-.95s-1.08-.34-1.68-.34-1.17,.11-1.68,.34c-.52,.22-.96,.54-1.33,.95-.37,.41-.66,.91-.87,1.49-.21,.58-.31,1.22-.31,1.92s.1,1.35,.31,1.92c.21,.57,.5,1.07,.87,1.48,.37,.41,.82,.73,1.33,.95,.52,.22,1.08,.34,1.68,.34s1.17-.11,1.68-.34c.52-.22,.96-.54,1.33-.95,.37-.41,.66-.9,.87-1.48,.21-.57,.31-1.21,.31-1.92s-.1-1.34-.31-1.92Zm-2.04,4.31c-.45,.59-1.07,.88-1.85,.88s-1.39-.3-1.85-.88c-.45-.59-.68-1.39-.68-2.4s.23-1.81,.68-2.4c.45-.59,1.07-.88,1.85-.88s1.39,.3,1.85,.88c.45,.59,.68,1.39,.68,2.4s-.23,1.81-.68,2.4Z" fill="none"/></clipPath></defs><g id="c"><g clip-path="url(#d)"><g><rect x="-16.57" y="40.67" width="163.21" height="8.24" fill="#951b81"/><polygon points="-16.57 36.53 -16.57 40.67 146.64 40.67 146.64 36.53 146.64 29.29 -16.57 29.29 -16.57 36.53" fill="#e6511e"/><rect x="-16.57" y="-8.32" width="163.21" height="28.41" fill="#e6511e"/><rect x="-16.57" y="20.09" width="163.21" height="9.2" fill="#951b81"/></g></g></g></svg>