<?xml version="1.0" encoding="UTF-8"?><svg id="b" xmlns="http://www.w3.org/2000/svg" viewBox="0 0 29 21.75"><g id="c"><path d="M10.34,12.16C2.83,6.7,2.25,6.22,.52,4.87c-.33-.26-.52-.65-.52-1.07v-1.08C0,1.22,1.22,0,2.72,0H26.28c1.5,0,2.72,1.22,2.72,2.72v1.08c0,.42-.19,.82-.52,1.07-1.73,1.36-2.31,1.83-9.82,7.29-.95,.69-2.84,2.37-4.16,2.34-1.31,.02-3.21-1.65-4.16-2.34ZM29,7.45v11.58c0,1.5-1.22,2.72-2.72,2.72H2.72c-1.5,0-2.72-1.22-2.72-2.72V7.45c0-.28,.32-.44,.55-.27,1.27,.99,2.95,2.24,8.73,6.43,1.19,.87,3.21,2.71,5.22,2.7,2.02,.02,4.08-1.86,5.23-2.7,5.78-4.2,7.45-5.45,8.72-6.44,.22-.17,.55-.01,.55,.27Z" fill="#fff"/></g></svg>