<?xml version="1.0" encoding="UTF-8"?><svg id="b" xmlns="http://www.w3.org/2000/svg" viewBox="0 0 16.5 22"><g id="c"><path d="M16.1,5.1l-4.07,4.07v11.46c0,.76-.62,1.38-1.38,1.38h-.69c-.76,0-1.38-.62-1.38-1.38v-4.81h-.69v4.81c0,.76-.62,1.38-1.38,1.38h-.69c-.76,0-1.38-.62-1.38-1.38V9.16L.4,5.1C-.13,4.56-.13,3.69,.4,3.15c.54-.54,1.41-.54,1.94,0l3.72,3.72h4.36l3.72-3.72c.54-.54,1.41-.54,1.94,0,.54,.54,.54,1.41,0,1.95ZM8.25,0c1.71,0,3.09,1.38,3.09,3.09s-1.39,3.09-3.09,3.09-3.09-1.38-3.09-3.09S6.54,0,8.25,0Z" fill="#26303d"/></g></svg>