<?xml version="1.0" encoding="UTF-8"?><svg id="b" xmlns="http://www.w3.org/2000/svg" viewBox="0 0 20.96 26.66"><g id="c"><path d="M4.43,6.54C4.43,2.93,7.36,0,10.98,0s6.54,2.93,6.54,6.54c0,2.64-.92,3.37-5.87,10.55-.32,.47-1.02,.47-1.34,0-4.95-7.18-5.87-7.92-5.87-10.55h-.01Zm9.27,0c0-1.51-1.22-2.73-2.73-2.73s-2.73,1.22-2.73,2.73,1.22,2.73,2.73,2.73,2.73-1.22,2.73-2.73Z" fill="#9badbc"/><path d="M6.55,9.63h-1.32c.31,.57,.75,1.24,1.32,2.08v-2.08Z" fill="#9badbc"/><path d="M4.66,8.32h1.89v-1.31c0-.72-.59-1.31-1.31-1.31h-.75c-.04,.28-.06,.55-.06,.84,0,.67,.06,1.22,.23,1.78Z" fill="#9badbc"/><path d="M3.93,9.23c-.37-.88-.5-1.66-.5-2.7,0-.28,.02-.56,.05-.84H1.31c-.72,0-1.31,.59-1.31,1.31V25.35c0,.11,.04,.21,.06,.32l6.49-6.48v-1.69h0s-2.29-.01-2.29-.01c-.18,0-.33-.15-.33-.33v-.65c0-.18,.15-.33,.33-.33h2.29v-2.62h-2.29c-.18,0-.33-.15-.33-.33v-.66c0-.18,.15-.33,.33-.33h1.45c-.76-1.12-1.29-1.95-1.64-2.7l-.14-.31Z" fill="#9badbc"/><path d="M19.65,20.11h-1.31v2.29c0,.18-.15,.33-.33,.33h-.66c-.18,0-.33-.15-.33-.33v-2.29h-2.62v2.29c0,.18-.15,.33-.33,.33h-.65c-.18,0-.33-.15-.33-.33v-2.29h-2.62v2.29c0,.18-.15,.33-.33,.33h-.66c-.18,0-.33-.15-.33-.33v-2.29h-1.69L.99,26.6c.11,.03,.21,.06,.32,.06H19.65c.72,0,1.31-.59,1.31-1.31v-3.93c0-.72-.59-1.31-1.31-1.31Z" fill="#9badbc"/><path d="M16.42,8.32l-5.94,2.35,5.94-2.35Z" fill="#9badbc"/></g></svg>