<?xml version="1.0" encoding="UTF-8"?><svg id="b" xmlns="http://www.w3.org/2000/svg" viewBox="0 0 19.38 19.38"><g id="c"><path d="M9.67,0c2.71,0,5.02,.95,6.92,2.84,.91,.91,1.6,1.95,2.08,3.12,.47,1.17,.71,2.41,.71,3.73s-.23,2.57-.7,3.73c-.47,1.16-1.16,2.18-2.07,3.07-.95,.93-2.02,1.65-3.22,2.15-1.2,.5-2.44,.74-3.72,.74s-2.51-.24-3.68-.74c-1.17-.49-2.22-1.2-3.15-2.13-.93-.93-1.64-1.98-2.12-3.14-.48-1.17-.73-2.39-.73-3.69s.24-2.51,.74-3.69c.49-1.18,1.2-2.24,2.14-3.18C4.72,.94,6.98,0,9.67,0Zm.03,1.75c-2.21,0-4.08,.77-5.59,2.32-.76,.77-1.35,1.64-1.76,2.6-.41,.96-.61,1.97-.61,3.02s.2,2.04,.61,3c.41,.96,1,1.82,1.76,2.58,.76,.76,1.62,1.33,2.58,1.73,.96,.4,1.96,.6,3.01,.6s2.04-.2,3.02-.61c.97-.4,1.85-.99,2.64-1.75,1.51-1.48,2.27-3.33,2.27-5.55,0-1.07-.2-2.09-.59-3.05-.39-.96-.96-1.81-1.71-2.56-1.56-1.56-3.43-2.34-5.62-2.34Zm-.12,6.33l-1.3,.67c-.14-.29-.31-.49-.51-.61-.2-.12-.39-.17-.56-.17-.87,0-1.3,.57-1.3,1.71,0,.52,.11,.93,.33,1.25,.22,.31,.54,.47,.97,.47,.57,0,.96-.28,1.19-.83l1.19,.61c-.25,.47-.61,.85-1.06,1.12-.45,.27-.95,.41-1.49,.41-.87,0-1.56-.27-2.09-.8-.53-.53-.8-1.27-.8-2.21s.27-1.66,.8-2.2c.54-.54,1.21-.81,2.03-.81,1.2,0,2.06,.47,2.58,1.4Zm5.59,0l-1.28,.67c-.14-.29-.31-.49-.51-.61-.2-.12-.4-.17-.58-.17-.87,0-1.3,.57-1.3,1.71,0,.52,.11,.93,.33,1.25,.22,.31,.54,.47,.97,.47,.57,0,.96-.28,1.19-.83l1.21,.61c-.27,.47-.62,.85-1.07,1.12-.45,.27-.94,.41-1.47,.41-.88,0-1.58-.27-2.1-.8-.53-.53-.79-1.27-.79-2.21s.27-1.66,.8-2.2c.54-.54,1.21-.81,2.03-.81,1.2,0,2.05,.47,2.56,1.4Z" fill="#878787"/></g></svg>