<?xml version="1.0" encoding="UTF-8"?><svg id="b" xmlns="http://www.w3.org/2000/svg" viewBox="0 0 22 22"><g id="c"><path d="M6.88,14.15L.07,20.96c-.03-.11-.07-.22-.07-.33V1.38C0,.62,.62,0,1.38,0H5.5c.76,0,1.38,.62,1.38,1.38v1.38h-2.41c-.19,0-.34,.15-.34,.34v.69c0,.19,.15,.34,.34,.34h2.41v2.75h-2.41c-.19,0-.34,.15-.34,.34v.69c0,.19,.15,.34,.34,.34h2.41v2.75h-2.41c-.19,0-.34,.15-.34,.34v.69c0,.19,.15,.34,.34,.34h2.41v1.78Zm15.12,2.35v4.12c0,.76-.62,1.38-1.38,1.38H1.38c-.12,0-.23-.04-.33-.07l6.81-6.81h1.78v2.41c0,.19,.15,.34,.34,.34h.69c.19,0,.34-.15,.34-.34v-2.41h2.75v2.41c0,.19,.15,.34,.34,.34h.69c.19,0,.34-.15,.34-.34v-2.41h2.75v2.41c0,.19,.15,.34,.34,.34h.69c.19,0,.34-.15,.34-.34v-2.41h1.38c.76,0,1.38,.62,1.38,1.38Z" fill="#26303d"/></g></svg>