<?xml version="1.0" encoding="UTF-8"?><svg id="b" xmlns="http://www.w3.org/2000/svg" viewBox="0 0 22 22"><g id="c"><path d="M12.95,4.28l4.77,4.77c.2,.2,.2,.53,0,.73L6.43,21.07l-5.22,.92c-.71,.12-1.32-.49-1.19-1.19l.91-5.22L12.21,4.28c.2-.2,.53-.2,.73,0ZM3.78,16.15h-1.56l-.49,2.77,1.34,1.34,2.77-.49v-1.56H3.78v-2.06Zm2.4-1.55l6.62-6.62c.24-.24,.24-.62,0-.85s-.61-.24-.85,0l-6.62,6.62c-.24,.24-.24,.62,0,.85s.61,.24,.85,0Zm13.23-6.52c-.2,.2-.53,.2-.73,0L13.91,3.31c-.2-.2-.2-.53,0-.73l1.98-1.98c.8-.8,2.11-.8,2.92,0l2.58,2.58c.81,.8,.81,2.11,0,2.92l-1.98,1.98Z" fill="#9badbc"/></g></svg>